<svg xmlns="http://www.w3.org/2000/svg" viewBox="0 0 36 45" x="0px" y="0px">
    <g transform="matrix(1, 0, 0, 1, 0.345001, 1.776)" id="object-0">
        <path fill="currentColor" d="M 17.655 4.724 C 8.823 4.735 1.667 11.892 1.655 20.724 C 1.656 29.56 8.819 36.722 17.655 36.724 C 17.955 36.724 18.255 36.714 18.555 36.694 C 27.023 36.209 33.645 29.206 33.655 20.724 C 33.643 11.892 26.487 4.735 17.655 4.724 Z M 28.875 28.044 C 22.488 22.323 12.821 22.323 6.435 28.044 C 4.999 25.873 4.237 23.326 4.245 20.724 C 4.245 13.317 10.249 7.314 17.655 7.314 C 25.061 7.314 31.065 13.317 31.065 20.724 C 31.073 23.326 30.311 25.873 28.875 28.044 Z"/>
        <path fill="currentColor" d="M 23.275 15.964 C 23.388 19.186 20.876 21.894 17.655 22.024 C 14.433 21.894 11.922 19.186 12.035 15.964 C 11.922 12.743 14.435 10.038 17.655 9.914 C 20.875 10.038 23.387 12.743 23.275 15.964 Z"/>
    </g>
</svg>
