<svg xmlns="http://www.w3.org/2000/svg" version="1.1" viewBox="0 0 100.0 100.0" width="500" height="500">
 <path d="m30.109 82.223c0.44531 0.55469 1.1094 0.89062 1.7773 0.89062h0.44531l7.2227-1.332v1.5547c0 0.10937 0 0.22266-0.10938 0.33203-1.668 1.332-7.4453 5.7773-11 9.1094-0.77734 0.66797-0.89062 1.8906-0.22266 2.668 0.89062 1.2227 3 3.2227 7.1094 3.2227 2.4453 0 5.4453-0.66797 9.4453-2.5547 1.8906-0.89062 3.668-1.8906 5.332-2.668 9-4.5547 14.891-7.5547 23.668-6.668 0.77734 0.10938 1.5547-0.33203 2-1 0.44531-0.66797 0.33203-1.5547-0.10938-2.2227-1.8906-2.4453-5.2227-5.5547-10.777-7.1094 3.7773-3.2227 6.7773-7.332 8.7773-11.891 2.8906-6.7773 3.2227-14.109 1-20.555l2.4453-1.4453c0.44531 1 0.89062 2 1.332 2.8906l0.44531 1c0.44531 0.77734 1.2227 1.1094 2 1.1094 0.22266 0 0.55469 0 0.77734-0.10938 1-0.33203 1.668-1.2227 1.4453-2.2227-0.66797-4.668-1.8906-8.5547-3.5547-12.109-2.1094-4.2227-5.332-7.668-9-9.8906-3.668-2.1094-8.1094-3.2227-12.777-3.332-1.7773 0-3.668 0.10938-5.4453 0.33203 0.77734-0.44531 1.668-1 2.668-1.4453 4.4453-1.8906 11-3.1094 17.668-3.1094 10.777 0 13.555-7.4453 13.668-7.7773 0.10938-0.22266 0-0.55469-0.10938-0.77734-2.5625-3.0039-6.7852-4.8906-12.453-5.5586h-0.10938c-0.55469-0.10938-1.1094-0.10938-1.668-0.10938-3.1094-0.22266-6.4453 0.10938-9.7773 0.66406h-0.10938c-3.7773 0.66797-7.4453 1.7773-10.777 3.2227-0.10938 0-0.22266 0.10938-0.33203 0.10938-2.668 1.2227-5 2.5547-6.8906 4.1094h-0.10938c-0.55469 0.44531-1 0.89062-1.5547 1.332-8.5547 8.5547-5.5547 19.223-4.5547 21.891-2.4453 1.5547-4.7773 3.5547-6.8906 6l-1.0039-0.66406c-0.33203-0.22266-0.66797-0.22266-0.89062 0-0.33203 0.22266-6.8906 4.668-6.8906 13.668 0 0.33203 0.22266 0.66797 0.66797 0.77734l3.332 0.89062-10.664 5.8867c-1.1094 0.22266-1.8906 1.1094-1.8906 2.332 0 0.55469 0.22266 1.1094 0.55469 1.4453zm44.223 2.1094c0.10938 0.10938 0.10938 0.33203 0 0.33203 0 0.10938-0.10938 0.22266-0.33203 0.22266-9.2227-1-15.668 2.332-24.555 6.8906-1.668 0.89062-3.4453 1.7773-5.332 2.668-9.5547 4.668-13.332 1.4453-14.445-0.10937-0.10938-0.10938-0.10938-0.33203 0-0.44531 3.4453-3.2227 9-7.5547 10.777-9 13.445-5.668 19.555-5.3359 19.555-5.3359 0.10938 0 0.33203 0 0.44531-0.10938 0.89063-0.55469 1.7773-1.1094 2.668-1.7773 5.8867 1.1094 9.332 4.2227 11.219 6.6641zm-33.109-1.5547v-1.4453l8.332-1.5547c-2.332 0.77734-5.1094 1.668-8.332 3zm10-3.4453c0.33203-0.22266 0.66797-0.55469 0.89062-0.89062l7.8867-15.219-0.66797 14.668c-1.2227 0-3.8867 0.33203-8.1094 1.4414zm22.887-37c0-0.10938-0.10938-0.10938-0.10938-0.22266-2.5547-5.8906-7.2227-10.223-13.109-12.332-3.2227-1.1094-6.668-1.5547-10.109-1.2227l-0.22266-2.332c1.7773 0 3.668 0.10938 5.668 0.22266 4.5547 0.44531 7.8906 1.332 10.668 3 1.5547 0.89063 3 2.1094 4.332 3.4453 1.1094 1.2227 2.2227 2.668 3.2227 4.4453 0.77734 1.2227 1.332 2.4453 2 3.668zm-16.441-20.777c4.4453 0 8.5547 1.1094 12 3.1094 3.4453 2 6.4453 5.2227 8.332 9.1094 1.668 3.332 2.7773 7.1094 3.4453 11.555 0 0.10938-0.10937 0.22266-0.33203 0.33203-0.22266 0.10938-0.66797 0-0.66797-0.10938l-0.44531-0.88281c-1.1094-2.4453-2.4453-5.332-4.1094-8.2227-1.1094-1.7773-2.2227-3.332-3.4453-4.668-1.332-1.4453-3-2.7773-4.668-3.7773-3-1.7773-6.668-2.7773-11.445-3.2227-2.1094-0.22266-4.1094-0.22266-6-0.22266-1.4453 0-2.8906 0-4.1094 0.10937-0.22266 0-0.44531-0.22266-0.55469-0.44531 0 0-0.10938-0.44531 0.22266-0.55469 3.8867-1.4414 7.7773-2.1094 11.777-2.1094zm-8.5586 7.2227c-0.77734 0.10938-1.4453 0.22266-2.2227 0.44531 0.66797-1.1094 1.1094-2.332 1.2227-3h0.66797zm-5.332-16.555c-0.10938 0.66797-0.22266 1.332-0.33203 2-0.10937 0.44531 0.22266 0.89062 0.66797 1h0.22266c0.33203 0 0.77734-0.22266 0.77734-0.66797 0.33203-1.4453 0.44531-3.2227 0.44531-4 1.4453-1.1094 3.1094-2.2227 5-3.1094-0.10938 0.55469-0.33203 1.2227-0.66797 2-0.10938 0.44531 0.10938 0.89063 0.44531 1.1094h0.33203c0.33203 0 0.66797-0.22266 0.77734-0.55469 0.55469-1.4453 0.77734-2.668 0.88672-3.332 2.7773-1.2227 5.7773-2.1094 8.8906-2.7773-0.22266 0.66797-0.55469 1.5547-1 2.332-0.22266 0.33203-0.10938 0.89062 0.22266 1.1094 0.10938 0.10938 0.33203 0.10938 0.44531 0.10938 0.22266 0 0.55469-0.10938 0.66797-0.33203 0.77734-1.2227 1.2227-2.7773 1.4453-3.5547 3-0.44531 6-0.66797 8.8906-0.55469h0.44531c-0.44531 0.77734-1 1.668-1.7773 2.1094-0.33203 0.22266-0.44531 0.77734-0.22266 1.1094 0.21484 0.44922 0.55078 0.55859 0.76953 0.55859 0.10938 0 0.33203 0 0.44531-0.10938 1.332-0.89062 2.2227-2.4453 2.668-3.332 4.5547 0.55469 8.2227 2.2227 10.332 4.5547-0.66797 1.4453-3.668 6.2227-11.891 6.2227h-1.332c-0.44531-0.77734-1.4453-2.4453-2.7773-3.2227-0.44531-0.22266-0.89063-0.10938-1.1094 0.33203-0.22266 0.44531-0.10937 0.89062 0.33203 1.1094 0.66797 0.33203 1.2227 1.2227 1.7773 1.8906-2.332 0.10938-4.668 0.44531-6.8906 0.77734-0.66797-0.55469-2.2227-1.8906-3.8906-2.7773-0.44531-0.22266-0.89063-0.10938-1.1094 0.33203-0.22266 0.44531-0.10937 0.89062 0.33203 1.1094 0.89062 0.44531 1.7773 1.1094 2.5547 1.668-2.1094 0.44531-4 1-5.668 1.7773-0.66797-0.55469-1.8906-1.4453-3-1.7773-0.44531-0.10938-0.89062 0.10938-1 0.55469-0.10937 0.44531 0.10938 0.89062 0.55469 1 0.55469 0.22266 1.2227 0.55469 1.7773 1-1.7773 0.89062-3.1094 1.8906-4 2.8906-1.332 0.33203-2.5547 0.66797-3.8906 1.1094-1 0.33203-1.5547 1.4453-1.332 2.5547 0.33203 1 1.2227 1.668 2.1094 1.668h0.33203c-0.44531 1.2227-1.332 3.2227-3 4-0.44531 0.10938-0.77734 0.33203-1.2227 0.44531-0.10938-2.4453 0.22266-8.332 4.7773-13.223 5.9023-6.1094 16.344-8.5547 31.344-7.332 0.44531 0 0.89062-0.33203 0.89062-0.77734 0-0.44531-0.33203-0.89062-0.77734-0.89062-15.555-1.332-26.555 1.332-32.668 8-5.5547 5.8906-5.332 13.109-5.2227 15.109-0.33203 0.22266-0.66797 0.33203-1.1094 0.55469-0.89062-2.7734-3.3359-11.996 4.332-19.773zm16.555 19.109c5.4453 1.8906 9.7773 6 12.109 11.445 2.7773 6.332 2.668 14-0.33203 21-2.332 5.4453-6.2227 10.223-11.109 13.445l0.89062-17.555 5-9.5547c0.10938-0.22266 0.22266-0.44531 0.22266-0.66797 0.10938-0.89062 0.55469-4-1.2227-5.8906-1.1094-1.2227-2.7773-1.668-4.8906-1.4453-0.33203 0-0.77734 0.22266-1.1094 0.44531l-11.332 7.8906-15.891-10.555c7.332-8.4453 18.332-11.891 27.664-8.5586zm-36.441 19.777c0.22266-6.4453 4.332-10.223 5.668-11.332l17.555 11.668-6.2227 4.332zm4.5547 3 10.332 2.7773c-0.66797 0.22266-1.4453 0.44531-2.2227 0.55469l-16.777 1.4453zm-12.555 6.8906 20.777-1.8906c1.668-0.10938 3.332-0.77734 4.7773-1.7773l19.332-13.555c0.10938-0.10938 0.22266-0.10938 0.33203-0.10938h0.89062c1.2227 0 2.1094 0.33203 2.668 0.89062 1.2227 1.332 0.89062 4 0.77734 4.4453 0 0.10938 0 0.10938-0.10937 0.22266l-14.668 28.441c-0.10938 0.22266-0.22266 0.33203-0.44531 0.33203l-18.109 3.4453c-0.22266 0-0.44531 0-0.66797-0.22266l-16-19.113c-0.10937-0.10938-0.10937-0.22266-0.10937-0.44531-0.003907-0.33203 0.21875-0.66406 0.55469-0.66406zm45.664-10.445c1.5547 0 2.7773-1.2227 2.7773-2.7773 0-1.5547-1.2227-2.7773-2.7773-2.7773-1.5547 0-2.7773 1.2227-2.7773 2.7773 0 1.5547 1.2227 2.7773 2.7773 2.7773zm0-3.8867c0.66797 0 1.1094 0.55469 1.1094 1.1094 0 0.55469-0.55469 1.1094-1.1094 1.1094-0.66797 0-1.1094-0.55469-1.1094-1.1094 0-0.55469 0.44531-1.1094 1.1094-1.1094zm-41.109 18.223c-0.22266-0.22266-0.22266-0.55469-0.10937-0.89062 0.10937-0.33203 0.33203-0.44531 0.66797-0.55469l18.668-1.7773 6.668-4.7773 8.8906-6.4453c0.33203-0.22266 0.89062-0.22266 1.1094 0.22266 0.22266 0.33203 0.22266 0.89062-0.22266 1.1094l-2.1094 1.5547 1.332 1.8906c0.22266 0.33203 0.10938 0.89062-0.22266 1.1094-0.11719 0.33594-0.33984 0.33594-0.44922 0.33594-0.22266 0-0.55469-0.10938-0.66797-0.33203l-1.332-1.8906-4.7773 3.4453 3.8906 5.1094c0.22266 0.33203 0.22266 0.89062-0.10938 1.2227-0.10938 0.10938-0.33203 0.10938-0.44531 0.10938-0.22266 0-0.55469-0.10938-0.66797-0.33203l-3.8906-5.1094-5.5586 3.8867 6.332 8.4453c0.22266 0.33203 0.22266 0.89062-0.22266 1.1094-0.10938 0.10938-0.33203 0.10938-0.44531 0.10938-0.22266 0-0.55469-0.10938-0.66797-0.33203l-6.5547-8.7773-7.5547 0.66797 7 9.4453c0.22266 0.33203 0.22266 0.89063-0.22266 1.1094-0.10938 0.10937-0.33203 0.10937-0.44531 0.10937-0.22266 0-0.55469-0.10937-0.66797-0.33203l-7.668-10.223-7.332 0.66797 10.109 12.109c0.33203 0.33203 0.22266 0.89062-0.10938 1.2227-0.10938 0.10938-0.33203 0.22266-0.55469 0.22266-0.22266 0-0.44531-0.10938-0.66797-0.33203z"/>
</svg>