<?xml version="1.0" encoding="utf-8"?>
<svg xmlns="http://www.w3.org/2000/svg" data-name="Layer 1" viewBox="0 0 512 640" x="0px" y="0px">
  <g transform="matrix(1, 0, 0, 1, -0.002548, 63.988537)">
    <path d="M350.24,408.32a8,8,0,0,1-8-8V305.06a8,8,0,1,1,16,0v95.26A8,8,0,0,1,350.24,408.32Z"/>
    <path d="M350.24,204.43a8,8,0,0,1-8-8V132a31.19,31.19,0,0,0-31.16-31.15H57.29a8,8,0,1,1,0-16H311.08A47.21,47.21,0,0,1,358.24,132v64.46A8,8,0,0,1,350.24,204.43Z"/>
    <path d="M83.58,391.27a8,8,0,0,1-8-8V162.85a8,8,0,0,1,16,0V383.27A8,8,0,0,1,83.58,391.27Z"/>
    <path d="M83.58,170.85H31a8,8,0,0,1-8-8V119.11a34.29,34.29,0,0,1,68.58,0v43.74A8,8,0,0,1,83.58,170.85ZM39,154.85H75.58V119.11a18.29,18.29,0,0,0-36.58,0Z"/>
    <path d="M365.62,461.3H109.87A34.33,34.33,0,0,1,75.58,427V383.27a8,8,0,0,1,16,0V427a18.29,18.29,0,1,0,36.57,0V400.32a8,8,0,0,1,8-8H393.49a8,8,0,0,1,8,8v25.1A35.91,35.91,0,0,1,365.62,461.3Zm-226.76-16H365.62a19.9,19.9,0,0,0,19.87-19.88v-17.1H144.15V427A34.12,34.12,0,0,1,138.86,445.3Z"/>
    <path d="M319.56,355.49H114.25a8,8,0,0,1,0-16H319.56a8,8,0,0,1,0,16Z"/>
    <path d="M311.51,305H114.25a8,8,0,0,1,0-16H311.51a8,8,0,0,1,0,16Z"/>
    <path d="M295.4,254.57H114.25a8,8,0,0,1,0-16H295.4a8,8,0,0,1,0,16Z"/>
    <path d="M255.12,204.11H114.25a8,8,0,0,1,0-16H255.12a8,8,0,0,1,0,16Z"/>
    <path d="M214.84,153.65H114.25a8,8,0,1,1,0-16H214.84a8,8,0,0,1,0,16Z"/>
    <path d="M339.65,318.26a8,8,0,0,1-7.9-6.79c-.44-2.86-10.41-70.82,18.25-137.05a8,8,0,0,1,4.71-4.38l17.62-6.12-4.14-18.19a8,8,0,0,1,1.22-6.32c40.41-58.59,103.69-86.85,106.36-88a8.11,8.11,0,0,1,11.29,6.24c.45,3.11,4.28,31.33-.23,68.3a8,8,0,0,1-4.77,6.38l-12.82,5.52,8.61,26.76a8,8,0,0,1,.06,4.74,217.63,217.63,0,0,1-18,43.15,219.13,219.13,0,0,1-29.8,41.15,8.06,8.06,0,0,1-3.47,2.23l-20.89,6.69.25,10.33a8,8,0,0,1-2.9,6.36c-31,25.62-59.13,37.86-60.31,38.37A8.14,8.14,0,0,1,339.65,318.26ZM363.32,184C344.45,229.8,345,277.08,346.47,298a281.44,281.44,0,0,0,43.47-28.64L389.63,257a8,8,0,0,1,5.56-7.82l24.55-7.86A202.36,202.36,0,0,0,446,204.72a201.12,201.12,0,0,0,15.91-37.61l-10.07-31.3a8,8,0,0,1,4.45-9.8l15.23-6.56a280.88,280.88,0,0,0,.85-48.54c-18.45,9.76-58.75,34.23-87.74,74.73l4.94,21.71a8,8,0,0,1-5.17,9.33Zm60.91,64.25h0Z"/>
    <path d="M319.56,355.49a8,8,0,0,1-7-11.88L414.19,160.27a8,8,0,0,1,14,7.75L326.56,351.37A8,8,0,0,1,319.56,355.49Z"/>
  </g>
</svg>