<svg width="640" height="640" xmlns="http://www.w3.org/2000/svg" data-name="Layer 1">

 <g>
  <title>Layer 1</title>
  <g id="svg_1" transform="matrix(1.33333, 0, 0, 1.33333, -28.3356, -90.1098)">
   <path id="svg_2" d="m356.23984,457.07013a8,8 0 0 1 -8,-8l0,-95.26a8,8 0 1 1 16,0l0,95.26a8,8 0 0 1 -8,8z"/>
   <path id="svg_3" d="m356.23984,253.18013a8,8 0 0 1 -8,-8l0,-64.43a31.19,31.19 0 0 0 -31.16,-31.15l-253.79,0a8,8 0 1 1 0,-16l253.79,0a47.21,47.21 0 0 1 47.16,47.15l0,64.46a8,8 0 0 1 -8,7.97z"/>
   <path id="svg_4" d="m89.57984,440.02013a8,8 0 0 1 -8,-8l0,-220.42a8,8 0 0 1 16,0l0,220.42a8,8 0 0 1 -8,8z"/>
   <path id="svg_5" d="m89.57984,219.60013l-52.58,0a8,8 0 0 1 -8,-8l0,-43.74a34.29,34.29 0 0 1 68.58,0l0,43.74a8,8 0 0 1 -8,8zm-44.58,-16l36.58,0l0,-35.74a18.29,18.29 0 0 0 -36.58,0l0,35.74z"/>
   <path id="svg_6" d="m371.61984,510.05013l-255.75,0a34.33,34.33 0 0 1 -34.29,-34.3l0,-43.73a8,8 0 0 1 16,0l0,43.73a18.29,18.29 0 1 0 36.57,0l0,-26.68a8,8 0 0 1 8,-8l257.34,0a8,8 0 0 1 8,8l0,25.1a35.91,35.91 0 0 1 -35.87,35.88zm-226.76,-16l226.76,0a19.9,19.9 0 0 0 19.87,-19.88l0,-17.1l-241.34,0l0,18.68a34.12,34.12 0 0 1 -5.29,18.3z"/>
   <path id="svg_7" d="m325.55984,404.24013l-205.31,0a8,8 0 0 1 0,-16l205.31,0a8,8 0 0 1 0,16z"/>
   <path id="svg_8" d="m317.50984,353.75013l-197.26,0a8,8 0 0 1 0,-16l197.26,0a8,8 0 0 1 0,16z"/>
   <path id="svg_9" d="m301.39984,303.32013l-181.15,0a8,8 0 0 1 0,-16l181.15,0a8,8 0 0 1 0,16z"/>
   <path id="svg_10" d="m261.11984,252.86013l-140.87,0a8,8 0 0 1 0,-16l140.87,0a8,8 0 0 1 0,16z"/>
   <path id="svg_11" d="m220.83984,202.40013l-100.59,0a8,8 0 1 1 0,-16l100.59,0a8,8 0 0 1 0,16z"/>
   <path id="svg_12" d="m345.64984,367.01013a8,8 0 0 1 -7.9,-6.79c-0.44,-2.86 -10.41,-70.82 18.25,-137.05a8,8 0 0 1 4.71,-4.38l17.62,-6.12l-4.14,-18.19a8,8 0 0 1 1.22,-6.32c40.41,-58.59 103.69,-86.85 106.36,-88a8.11,8.11 0 0 1 11.29,6.24c0.45,3.11 4.28,31.33 -0.23,68.3a8,8 0 0 1 -4.77,6.38l-12.82,5.52l8.61,26.76a8,8 0 0 1 0.06,4.74a217.63,217.63 0 0 1 -18,43.15a219.13,219.13 0 0 1 -29.8,41.15a8.06,8.06 0 0 1 -3.47,2.23l-20.89,6.69l0.25,10.33a8,8 0 0 1 -2.9,6.36c-31,25.62 -59.13,37.86 -60.31,38.37a8.14,8.14 0 0 1 -3.14,0.63zm23.67,-134.26c-18.87,45.8 -18.32,93.08 -16.85,114a281.44,281.44 0 0 0 43.47,-28.64l-0.31,-12.36a8,8 0 0 1 5.56,-7.82l24.55,-7.86a202.36,202.36 0 0 0 26.26,-36.6a201.12,201.12 0 0 0 15.91,-37.61l-10.07,-31.3a8,8 0 0 1 4.45,-9.8l15.23,-6.56a280.88,280.88 0 0 0 0.85,-48.54c-18.45,9.76 -58.75,34.23 -87.74,74.73l4.94,21.71a8,8 0 0 1 -5.17,9.33l-21.08,7.32zm60.91,64.25l0,0z"/>
   <path id="svg_13" d="m325.55984,404.24013a8,8 0 0 1 -7,-11.88l101.63,-183.34a8,8 0 0 1 14,7.75l-101.63,183.35a8,8 0 0 1 -7,4.12z"/>
  </g>
 </g>
</svg>